#!OML:ASF H:\Terrain\Walking\May29\JustinRory\Justin.ASF
:FULLY-SPECIFIED
:DEGREES
738
root 9.994542674650699 17.6431373253493 3.7356187624750508 -94.62496848303391 -9.335372814371258 -95.97983756487025 
lowerback 2.8328897005988027 2.3388672634730536 2.0261785868263473 
upperback 0.10590296479041916 3.2261625748502993 1.9886236926147705 
thorax -1.4020310538922156 1.6244855748502993 0.8139696167664672 
lowerneck -16.96526007984032 -3.1537524351297406 -11.155361876247504 
upperneck 22.996609381237523 -2.2102944790419166 2.0883404550898206 
head 10.375214770459081 -1.9129793612774453 2.270629001996008 
rclavicle 6.788900738522954e-14 -3.2876969261477058e-15 
rhumerus -23.01920778443114 -8.870522834331338 -81.04767664670659 
rradius 32.19089401197605 
rwrist -11.452500423153692 
rhand -13.179983033932135 -142.54740638722558 
rfingers 7.12502 
rthumb 12.919712774451098 -7.576453912175649 
lclavicle 6.788900738522954e-14 -3.2876969261477058e-15 
lhumerus -33.09672874251497 13.395843912175648 78.86142734530938 
lradius 35.40822415169661 
lwrist -7.835101596806387 
lhand 2.5122381037924155 38.752745908183634 
lfingers 7.12502 
lthumb 27.99388522954092 66.68012614770458 
rfemur -2.573779840319361 -1.475023005988024 22.991370658682634 
rtibia 30.10404351297405 
rfoot -10.746330658682636 -3.429905708582835 
rtoes -3.003786427145709 
lfemur -19.69989820359281 3.259936826347306 -14.418040319361278 
ltibia 29.937107784431138 
lfoot -9.632958059880242 7.612555648702595 
ltoes -6.713326187624751 
739
root 9.99127628742515 17.64404371257485 3.788675449101797 -94.98402538922154 -9.26411131736527 -96.32167233532934 
lowerback 2.8290092215568867 2.3441254850299402 2.0354911257485035 
upperback 0.10540851245508984 3.2335026946107783 1.9876529341317366 
thorax -1.3998569401197607 1.6281586946107782 0.8076552035928144 
lowerneck -16.974062874251498 -3.148797664670659 -11.151627544910179 
upperneck 22.9975377245509 -2.2029182455089824 2.0826903832335333 
head 10.376531736526946 -1.9103670059880242 2.2688840718562875 
rclavicle 6.809246586826347e-14 -3.2603193413173656e-15 
rhumerus -23.02098023952096 -8.865192035928143 -81.03455928143713 
rradius 32.22068443113773 
rwrist -11.495567233532933 
rhand -13.178689221556885 -141.8229299401198 
rfingers 7.12502 
rthumb 12.92095988023952 -7.570460838323353 
lclavicle 6.809246586826347e-14 -3.2603193413173656e-15 
lhumerus -33.11813473053892 13.382080838323352 78.87028443113772 
lradius 35.38526946107784 
lwrist -7.84086748502994 
lhand 2.507721736526946 38.74855269461078 
lfingers 7.12502 
lthumb 27.989568263473053 66.67664131736527 
rfemur -2.526324251497007 -1.4673812155688624 23.00544371257485 
rtibia 30.099166467065867 
rfoot -10.73348371257485 -3.401185508982037 
rtoes -3.009671377245509 
lfemur -19.733635329341315 3.2515957485029943 -14.415651497005989 
ltibia 29.92208023952096 
lfoot -9.588389155688624 7.586043353293414 
ltoes -6.698752754491018 
740
root 9.9880099001996 17.6449500998004 3.8417321357285434 -95.34308229540916 -9.192849820359282 -96.66350710578841 
lowerback 2.8251287425149703 2.3493837065868264 2.044803664670659 
upperback 0.10491406011976048 3.2408428143712573 1.9866821756487028 
thorax -1.3976828263473056 1.6318318143712573 0.8013407904191618 
lowerneck -16.982865668662676 -3.143842894211577 -11.147893213572853 
upperneck 22.99846606786427 -2.1955420119760483 2.077040311377246 
head 10.377848702594811 -1.907754650698603 2.2671391417165667 
rclavicle 6.82959243512974e-14 -3.232941756487027e-15 
rhumerus -23.022752694610777 -8.85986123752495 -81.02144191616767 
rradius 32.250474850299405 
rwrist -11.538634043912175 
rhand -13.177395409181637 -141.098453493014 
rfingers 7.12502 
rthumb 12.922206986027945 -7.564467764471058 
lclavicle 6.82959243512974e-14 -3.232941756487027e-15 
lhumerus -33.13954071856287 13.368317764471058 78.87914151696607 
lradius 35.36231477045908 
lwrist -7.846633373253493 
lhand 2.503205369261477 38.744359481037925 
lfingers 7.12502 
lthumb 27.98525129740519 66.67315648702595 
rfemur -2.4788686626746514 -1.4597394251497007 23.019516766467063 
rtibia 30.094289421157686 
rfoot -10.720636766467067 -3.372465309381238 
rtoes -3.015556327345309 
lfemur -19.76737245508982 3.243254670658683 -14.4132626746507 
ltibia 29.907052694610776 
lfoot -9.543820251497008 7.559531057884232 
ltoes -6.684179321357286 
741
root 9.98474351297405 17.64585648702595 3.89478882235529 -95.7021392015968 -9.121588323353294 -97.0053418762475 
lowerback 2.821248263473054 2.3546419281437125 2.054116203592814 
upperback 0.10441960778443116 3.2481829341317363 1.9857114171656687 
thorax -1.3955087125748504 1.6355049341317365 0.7950263772455091 
lowerneck -16.991668463073854 -3.138888123752495 -11.144158882235528 
upperneck 22.999394411177644 -2.188165778443114 2.0713902395209582 
head 10.379165668662674 -1.9051422954091817 2.2653942115768464 
rclavicle 6.849938283433134e-14 -3.2055641716566868e-15 
rhumerus -23.024525149700597 -8.854530439121756 -81.00832455089821 
rradius 32.28026526946108 
rwrist -11.581700854291416 
rhand -13.176101596806387 -140.37397704590822 
rfingers 7.12502 
rthumb 12.923454091816367 -7.5584746906187625 
lclavicle 6.849938283433134e-14 -3.2055641716566868e-15 
lhumerus -33.16094670658683 13.354554690618762 78.88799860279441 
lradius 35.33936007984032 
lwrist -7.852399261477046 
lhand 2.498689001996008 38.74016626746507 
lfingers 7.12502 
lthumb 27.980934331337323 66.66967165668662 
rfemur -2.431413073852296 -1.452097634730539 23.03358982035928 
rtibia 30.089412375249502 
rfoot -10.707789820359281 -3.34374510978044 
rtoes -3.02144127744511 
lfemur -19.80110958083832 3.2349135928143715 -14.41087385229541 
ltibia 29.892025149700597 
lfoot -9.49925134730539 7.53301876247505 
ltoes -6.669605888223553 
